<?xml version="1.0" standalone="no"?>
<!DOCTYPE svg PUBLIC "-//W3C//DTD SVG 20010904//EN"
 "http://www.w3.org/TR/2001/REC-SVG-20010904/DTD/svg10.dtd">
<svg version="1.0" xmlns="http://www.w3.org/2000/svg"
 width="1280.000000pt" height="1202.000000pt" viewBox="0 0 1280.000000 1202.000000"
 preserveAspectRatio="xMidYMid meet">
<metadata>
Created by potrace 1.15, written by Peter Selinger 2001-2017
</metadata>
<g transform="translate(0.000000,1202.000000) scale(0.100000,-0.100000)"
fill="#000000" stroke="none">
<path d="M6245 12009 c-1192 -8 -1678 -16 -1630 -27 52 -11 260 -99 352 -147
433 -229 799 -611 1141 -1192 78 -131 1192 -2180 1192 -2191 0 -4 -182 -124
-404 -267 -222 -143 -404 -261 -403 -262 2 -2 2172 -22 2631 -24 l309 -2 778
1284 c428 706 776 1285 774 1287 -2 2 -207 -102 -456 -232 -249 -130 -456
-233 -459 -229 -6 6 -351 642 -687 1262 -185 343 -573 628 -989 727 -91 22
-463 24 -2149 13z"/>
<path d="M4005 11881 c-204 -33 -422 -139 -572 -278 -41 -37 -214 -297 -788
-1182 -657 -1014 -733 -1136 -717 -1146 32 -23 2741 -1625 2754 -1630 12 -4
220 331 1356 2186 l133 217 -55 110 c-127 253 -317 556 -479 764 -412 530
-844 850 -1272 944 -82 18 -289 26 -360 15z"/>
<path d="M1605 8228 c-588 -4 -1172 -11 -1297 -16 l-227 -7 424 -330 c233
-181 424 -333 425 -336 0 -4 -195 -380 -433 -837 -440 -843 -463 -892 -487
-1042 -47 -303 88 -649 375 -957 157 -168 373 -332 542 -410 319 -147 694
-209 1329 -220 l350 -6 570 931 c313 513 571 932 574 932 3 0 196 -104 429
-230 234 -126 425 -229 426 -227 1 1 -334 624 -744 1384 l-746 1383 -220 -2
c-121 -1 -701 -5 -1290 -10z"/>
<path d="M8610 7749 c-818 -67 -1583 -385 -2215 -923 -38 -33 -123 -112 -188
-175 -715 -699 -1125 -1625 -1164 -2630 l-6 -163 -446 6 c-448 6 -1444 15
-2396 21 -547 3 -616 8 -855 61 -390 87 -757 286 -1042 565 -49 47 -87 81 -85
75 3 -6 416 -771 919 -1701 902 -1667 916 -1691 989 -1769 206 -221 521 -372
914 -441 286 -50 235 -49 2070 -54 l1720 -6 65 -41 c469 -296 1050 -491 1650
-556 162 -17 598 -17 760 0 689 74 1310 307 1860 695 622 440 1111 1068 1380
1772 125 330 203 656 242 1015 19 183 16 617 -5 803 -63 532 -215 1010 -462
1453 -598 1075 -1662 1805 -2865 1968 -260 35 -590 45 -840 25z m570 -116 l95
-7 -115 -11 c-135 -14 -150 -19 -150 -51 0 -27 -18 -39 -75 -48 -64 -11 -132
-36 -147 -53 -12 -15 -8 -16 44 -10 34 3 60 1 64 -4 11 -18 -44 -88 -74 -95
-15 -3 -43 -11 -62 -17 -19 -6 -41 -10 -48 -8 -23 4 -113 -30 -109 -42 2 -7
39 -15 87 -19 45 -4 88 -12 94 -18 17 -17 -16 -36 -74 -44 -28 -4 -50 -11 -50
-16 0 -6 7 -10 15 -10 9 0 18 -7 22 -16 10 -27 49 -35 121 -25 37 6 113 12
169 14 l102 5 38 -50 c21 -27 48 -64 60 -81 12 -18 32 -45 44 -61 15 -19 22
-40 21 -66 -2 -47 14 -60 30 -26 14 33 33 33 54 1 21 -32 10 -63 -28 -79 l-30
-13 33 -7 c73 -14 99 -55 59 -91 -19 -17 -19 -19 -3 -37 19 -21 19 -20 -24
-42 -18 -9 -33 -21 -33 -26 0 -13 17 -13 25 0 9 15 45 12 45 -4 0 -7 -7 -19
-15 -26 -8 -7 -15 -19 -15 -27 0 -8 -6 -21 -14 -29 -8 -7 -12 -23 -9 -34 4
-16 11 -18 31 -13 23 5 24 4 18 -21 -8 -31 11 -72 62 -135 42 -52 87 -81 125
-81 20 0 30 -7 37 -25 9 -23 12 -24 32 -14 51 26 68 51 68 100 0 29 6 51 15
59 8 7 15 19 15 27 0 44 122 153 171 153 50 0 88 27 109 76 11 24 26 44 33 44
8 0 27 10 42 22 22 17 47 23 130 29 70 5 125 15 174 33 40 14 81 26 92 26 10
0 19 4 19 9 0 10 -123 26 -137 18 -5 -3 -15 -2 -23 3 -12 7 -11 13 6 32 12 13
24 31 27 41 4 11 17 17 40 17 26 0 36 -6 45 -25 15 -33 55 -35 50 -3 -5 35
-63 68 -119 68 -51 0 -68 12 -49 34 8 11 5 19 -15 35 -34 26 -24 41 27 41 31
0 41 4 45 20 8 29 44 25 101 -10 59 -36 100 -42 58 -9 -35 28 -19 49 37 49
l40 0 -24 26 c-13 14 -40 32 -59 41 -33 14 -34 15 -16 29 11 8 29 14 40 15 12
1 1 5 -23 10 -53 10 -58 14 -41 34 9 10 31 15 74 15 58 0 68 -4 196 -78 163
-93 360 -227 492 -334 215 -173 436 -392 430 -424 -2 -8 5 -14 16 -14 27 0 49
-27 34 -42 -8 -8 -19 -8 -40 1 -27 11 -31 9 -91 -48 -57 -55 -63 -63 -55 -88
4 -16 10 -53 13 -83 6 -55 6 -55 42 -58 27 -2 47 5 86 32 l51 35 28 -67 c64
-158 63 -155 81 -147 10 5 41 16 68 25 43 15 50 20 47 41 -2 14 1 36 6 49 l9
24 14 -24 c7 -14 14 -31 15 -39 2 -8 9 -18 17 -23 24 -13 81 -108 71 -118 -13
-12 -35 -14 -65 -6 -19 6 -44 -1 -95 -24 -68 -31 -68 -31 -84 -10 -13 17 -22
19 -63 14 -38 -6 -51 -3 -68 12 -18 16 -20 26 -14 72 6 49 5 53 -12 50 -16 -3
-18 -14 -18 -83 l0 -79 -40 -7 c-73 -13 -127 -44 -139 -80 -8 -25 -20 -35 -50
-46 -22 -7 -45 -22 -53 -33 -17 -24 -93 -70 -116 -70 -9 0 -21 -9 -27 -20 -8
-15 -21 -20 -51 -20 -48 0 -47 -10 1 -42 40 -27 80 -98 80 -144 0 -17 -9 -43
-21 -58 l-21 -26 -120 6 c-140 8 -139 9 -137 -81 0 -33 -3 -83 -7 -111 -6 -45
-4 -54 15 -73 11 -11 29 -21 40 -21 10 0 31 -10 46 -22 l27 -21 83 26 c92 31
111 46 123 102 6 30 17 45 42 62 68 43 90 64 90 88 0 21 21 53 38 56 4 1 30 3
58 4 28 1 62 9 75 19 13 9 32 16 42 16 11 0 53 -34 95 -76 43 -42 96 -85 120
-96 51 -23 84 -71 75 -107 -4 -17 -2 -22 6 -17 6 4 11 30 11 58 0 49 1 50 25
44 40 -10 30 1 -44 48 -66 43 -106 87 -144 162 -16 30 -15 32 8 54 l23 22 11
-21 c7 -12 18 -21 26 -21 8 0 20 -9 27 -20 7 -12 46 -48 86 -81 56 -46 78 -72
96 -113 33 -74 116 -164 116 -126 0 6 -8 10 -17 10 -13 0 -14 3 -5 12 8 8 15
8 27 -2 22 -19 18 -37 -10 -44 -16 -4 -25 -13 -25 -26 0 -26 8 -25 53 5 43 30
45 37 13 67 -36 35 -40 57 -12 68 13 5 27 14 31 19 3 6 33 11 65 11 72 0 91
19 83 81 -8 56 11 49 35 -13 18 -48 18 -55 4 -70 -8 -10 -25 -18 -36 -18 -41
0 -49 -14 -42 -71 4 -29 11 -60 16 -70 12 -22 70 -41 112 -37 l32 3 27 -101
c15 -56 30 -121 34 -144 l7 -43 -28 9 c-16 5 -58 8 -94 6 -52 -2 -88 5 -181
34 -73 23 -125 34 -140 30 -14 -3 -36 -25 -51 -51 -18 -30 -34 -45 -48 -45
-12 0 -72 26 -133 58 -62 31 -127 63 -145 70 -42 18 -55 42 -41 79 14 37 3 90
-22 104 -14 7 -40 7 -89 0 -38 -6 -90 -11 -117 -11 -26 0 -99 -16 -162 -35
-154 -47 -187 -52 -211 -30 -18 16 -20 15 -44 -23 -13 -21 -43 -55 -65 -74
-43 -37 -65 -80 -56 -109 10 -30 -20 -84 -69 -125 -25 -21 -65 -66 -88 -99
-22 -33 -55 -75 -72 -93 l-31 -33 -6 -157 c-3 -86 -11 -178 -19 -203 -13 -45
-13 -48 13 -79 15 -17 27 -35 27 -38 0 -4 20 -34 45 -67 25 -33 50 -77 56 -99
14 -51 89 -129 154 -161 46 -23 57 -25 96 -16 24 6 71 11 104 11 33 0 101 11
150 25 128 35 150 34 196 -15 36 -38 39 -39 87 -33 46 5 51 3 67 -21 15 -22
16 -41 10 -133 -7 -121 -3 -139 49 -207 19 -25 40 -62 46 -83 7 -21 22 -51 32
-66 12 -16 24 -58 30 -101 9 -70 8 -79 -21 -162 -47 -140 -48 -155 -7 -259 19
-50 42 -133 51 -184 18 -108 44 -179 109 -308 48 -97 54 -121 34 -141 -10 -10
-10 -17 0 -33 11 -18 7 -28 -39 -92 -272 -374 -605 -695 -979 -942 -437 -290
-946 -492 -1445 -574 -259 -43 -306 -46 -635 -46 -329 0 -376 3 -635 46 -1347
222 -2491 1199 -2930 2503 -117 348 -178 672 -193 1034 -37 874 201 1667 718
2395 42 58 50 58 177 11 61 -23 104 -33 119 -30 20 5 28 1 42 -25 28 -52 60
-86 97 -103 47 -23 68 -58 68 -112 0 -39 4 -47 29 -60 33 -17 34 -21 11 -47
-17 -19 -17 -20 0 -14 30 11 58 -10 55 -40 -3 -23 2 -28 31 -37 42 -12 159
-119 167 -152 8 -32 -13 -59 -33 -43 -9 8 -17 9 -23 3 -6 -6 -11 -91 -12 -189
-3 -167 -1 -183 19 -227 12 -27 29 -48 37 -48 9 0 19 -16 26 -40 13 -48 65
-118 108 -145 17 -11 31 -25 32 -32 0 -6 10 -13 22 -15 16 -2 29 -22 53 -80
18 -42 42 -90 54 -107 14 -19 20 -38 16 -51 -4 -14 5 -31 33 -62 21 -24 44
-58 52 -76 13 -34 66 -82 90 -82 9 0 8 5 -4 18 -28 32 -94 143 -143 240 -41
84 -44 95 -31 109 20 19 53 4 64 -29 7 -24 155 -244 223 -331 32 -42 45 -69
49 -102 6 -60 40 -89 190 -163 102 -50 124 -57 170 -55 48 2 63 -4 140 -48 48
-28 106 -55 130 -62 57 -15 109 -67 124 -122 10 -37 14 -42 29 -34 14 7 22 3
37 -19 14 -18 39 -33 77 -45 58 -18 58 -18 82 5 29 28 50 18 77 -36 42 -85 34
-157 -28 -248 -73 -108 -93 -183 -59 -220 16 -18 16 -20 -11 -41 l-28 -22 36
-78 c19 -43 56 -133 82 -200 25 -67 52 -134 60 -149 7 -14 55 -58 106 -96 51
-38 100 -78 109 -88 14 -17 14 -46 -6 -320 -27 -368 -28 -375 -67 -455 -22
-47 -31 -81 -34 -132 -2 -37 -7 -83 -13 -102 -7 -25 -5 -47 6 -82 14 -47 13
-166 -3 -207 -8 -21 -30 -21 -39 2 -6 16 -7 16 -21 -2 -18 -25 -18 -36 1 -36
18 0 85 -68 85 -87 0 -7 -9 -13 -20 -13 -25 0 -28 -7 -32 -97 -3 -67 -2 -72
18 -77 31 -8 84 -55 84 -74 1 -24 77 67 84 99 3 14 16 40 30 57 15 16 26 34
26 39 0 4 18 31 41 58 l40 49 -25 13 c-64 34 -61 112 7 136 11 4 17 17 17 37
0 21 9 39 27 56 24 22 25 26 10 42 -32 36 -25 55 23 67 36 9 48 17 65 50 19
37 24 40 99 57 44 10 88 26 98 35 26 24 22 64 -12 111 -27 37 -37 62 -26 62 2
0 23 -8 46 -19 83 -37 151 13 245 184 54 96 56 102 51 156 -6 63 0 72 84 124
25 16 61 38 80 51 19 12 54 25 78 29 54 9 74 30 108 114 20 51 29 95 37 196
l10 130 43 49 c79 91 118 187 98 240 -3 9 -29 33 -57 53 -27 21 -58 44 -67 51
-9 7 -54 17 -99 22 -75 8 -87 13 -143 55 -33 25 -67 45 -75 45 -9 0 -33 -16
-54 -35 -22 -19 -49 -35 -62 -35 -25 0 -57 19 -42 26 36 15 75 46 75 59 0 25
-23 17 -80 -25 -29 -22 -55 -40 -57 -40 -2 0 -3 8 -3 19 0 10 22 42 49 71 l50
53 -20 25 c-10 14 -19 36 -19 50 0 52 -102 122 -178 122 -13 0 -33 5 -45 11
-32 16 -187 171 -187 187 0 10 -15 12 -70 6 -44 -4 -75 -3 -82 4 -7 6 -30 13
-51 17 -20 4 -49 16 -63 28 l-26 20 -24 -29 c-13 -16 -23 -41 -24 -56 0 -36
-26 -37 -42 -2 -10 22 -9 31 5 56 25 43 14 46 -30 9 -21 -17 -47 -31 -59 -31
-16 0 -27 -12 -44 -52 -12 -29 -24 -55 -26 -57 -2 -2 -19 8 -39 23 -33 25 -40
27 -103 20 l-68 -6 -32 36 c-31 36 -32 39 -32 135 0 111 3 107 -82 116 -93 11
-98 13 -98 43 1 15 9 52 20 82 11 30 19 72 20 93 0 35 -2 37 -30 37 -51 0 -88
-25 -101 -70 -16 -53 -27 -61 -96 -67 -77 -6 -111 16 -149 92 -23 48 -28 70
-27 134 0 110 12 183 35 208 11 12 42 31 68 42 l48 21 92 -21 c51 -11 95 -18
97 -15 2 2 -1 13 -9 25 -11 18 -10 23 7 36 16 12 35 14 94 9 41 -3 85 -11 97
-16 25 -12 49 -54 64 -114 18 -73 80 -128 80 -71 0 13 -11 61 -24 107 -41 145
-42 132 13 197 27 32 63 71 80 87 17 17 31 35 31 42 0 6 7 14 15 18 26 10 36
52 23 101 -9 34 -9 50 1 72 l13 28 19 -35 c13 -26 18 -30 19 -15 0 11 16 43
36 71 33 49 61 68 109 76 16 3 20 11 20 43 0 39 28 95 46 95 5 0 50 16 100 35
54 21 99 33 110 30 18 -6 16 -9 -12 -28 -36 -24 -57 -53 -47 -63 4 -3 19 3 35
14 15 11 51 31 80 46 29 14 56 32 60 40 4 7 17 16 28 18 19 5 19 5 2 13 -13 5
-26 0 -47 -20 -32 -30 -64 -30 -68 1 -2 16 -9 20 -31 16 -22 -3 -34 3 -54 28
-34 40 -34 47 3 55 30 7 40 28 19 40 -20 13 -78 -6 -129 -41 -28 -19 -59 -33
-68 -31 -13 3 -5 15 35 55 75 74 110 88 231 97 70 5 129 16 180 34 l77 26 3
45 c5 61 -11 71 -82 55 -29 -7 -59 -10 -65 -6 -18 11 9 39 52 54 l39 13 -71
34 c-53 27 -74 43 -88 70 -10 19 -28 49 -39 65 -12 17 -28 48 -35 70 -19 59
-24 60 -67 25 -22 -17 -59 -36 -83 -41 -42 -10 -45 -9 -71 21 -28 31 -36 64
-18 75 20 12 10 43 -17 54 -16 5 -46 24 -68 41 -42 31 -113 48 -159 36 -34 -8
-56 -54 -55 -113 2 -47 1 -54 -15 -100 -5 -16 0 -33 18 -60 32 -47 33 -76 2
-144 -15 -33 -27 -84 -31 -131 -10 -117 -41 -134 -117 -63 -51 47 -60 68 -56
128 l3 52 -59 7 c-44 6 -84 21 -150 58 -49 27 -98 50 -107 50 -20 0 -39 28
-39 58 0 21 -18 32 -50 32 -24 0 -40 29 -40 73 0 27 13 49 65 110 36 42 65 83
65 90 0 23 26 39 71 43 47 4 92 29 87 46 -3 7 -18 16 -35 22 -46 16 -49 24
-17 36 36 14 90 5 98 -16 12 -31 6 -94 -9 -100 -22 -9 -18 -19 10 -32 40 -18
63 -14 81 13 19 29 34 31 75 9 38 -19 47 -12 29 21 -9 16 -41 39 -87 60 -62
30 -93 56 -93 79 0 3 17 6 38 6 20 0 61 11 90 25 l54 25 -21 35 c-14 24 -19
44 -14 65 5 27 2 31 -30 45 -20 8 -48 15 -62 15 -24 0 -25 -3 -20 -33 5 -27 1
-38 -29 -72 l-36 -40 -20 24 c-11 13 -20 33 -20 46 0 13 -9 33 -19 46 l-20 24
-35 -34 -36 -34 -15 36 c-8 19 -24 39 -36 42 -16 6 -19 12 -14 32 5 20 0 33
-21 54 -32 34 -66 37 -94 9 -36 -36 -23 -77 26 -86 40 -7 41 -12 14 -64 -25
-50 -33 -54 -74 -39 -28 10 -44 9 -93 -4 -81 -23 -164 -22 -213 3 -21 11 -41
24 -45 30 -8 13 -112 13 -120 -1 -9 -14 -6 -16 30 -24 29 -7 29 -7 10 9 -20
17 -20 17 0 14 28 -4 30 -31 3 -43 -17 -7 -24 -20 -26 -47 -4 -46 -24 -50 -48
-9 -24 40 -53 51 -139 51 -40 0 -80 3 -89 6 -20 8 -21 30 -1 38 23 8 18 25
-10 38 -19 9 -31 8 -49 -1 -21 -12 -33 -10 -92 15 -55 22 -86 28 -149 29 -82
1 -128 10 -123 25 4 11 119 100 129 100 4 0 11 -4 14 -10 16 -26 73 -4 155 58
14 11 41 27 60 36 l35 17 -24 -21 c-16 -13 -18 -20 -9 -20 22 0 50 36 46 57
-2 10 -16 24 -32 31 l-28 14 64 39 c34 21 68 39 73 39 26 0 55 -14 55 -25 0
-6 -10 -17 -22 -23 -21 -10 -20 -11 15 -11 22 -1 63 6 93 14 30 8 79 22 109
30 60 17 73 35 25 35 -23 0 -33 7 -45 31 -20 38 -38 33 -45 -12 -4 -28 -10
-35 -31 -37 -15 -2 -44 4 -65 13 -38 16 -38 17 -19 32 11 8 98 53 193 100 189
93 174 90 250 42 26 -17 32 -18 32 -6 0 9 -11 29 -24 44 l-25 29 102 38 c96
36 103 37 128 22 15 -9 38 -16 52 -16 34 0 77 -17 77 -30 0 -5 -10 -10 -22
-10 -43 0 -49 -14 -21 -44 22 -24 31 -28 66 -23 22 3 53 15 68 26 16 12 34 21
41 20 19 -1 133 -73 133 -84 0 -15 -54 -18 -71 -4 -24 20 -16 31 11 13 13 -9
30 -14 37 -12 8 3 0 12 -19 21 -25 13 -37 14 -62 6 -36 -13 -37 -16 -15 -40
16 -18 12 -39 -8 -39 -7 0 -6 6 2 15 10 12 10 15 -1 15 -18 -1 -54 -28 -47
-35 3 -3 61 -10 129 -15 68 -6 141 -13 161 -16 26 -4 50 1 85 17 l48 23 -50 6
c-97 13 -116 44 -28 46 36 1 67 10 113 35 75 40 92 65 38 56 -73 -11 -66 35 7
49 20 3 35 12 35 20 0 17 35 18 79 3 28 -10 35 -9 54 9 12 11 68 43 125 71 56
28 102 56 102 61 0 17 -29 11 -50 -10 -20 -20 -80 -28 -80 -11 0 16 27 31 117
63 98 36 124 37 353 21z m167 -19 c-3 -3 -12 -4 -19 -1 -8 3 -5 6 6 6 11 1 17
-2 13 -5z m-238 -23 c7 -5 10 -14 7 -20 -9 -14 -53 -15 -61 -1 -15 25 24 40
54 21z m-724 -22 c13 -20 -28 -48 -108 -75 -65 -22 -91 -25 -138 -20 -65 6
-89 1 -89 -20 0 -20 118 -75 146 -68 27 7 40 -12 23 -33 -11 -12 -28 -14 -88
-11 -72 5 -76 7 -108 44 -19 22 -36 51 -39 65 -5 20 -16 29 -47 39 l-42 13 45
14 c25 8 74 14 110 13 187 -4 193 -4 250 23 60 29 76 32 85 16z m1943 -710
c-2 -6 -8 -10 -13 -10 -5 0 -11 4 -13 10 -2 6 4 11 13 11 9 0 15 -5 13 -11z
m-2358 -1274 c0 -8 -4 -15 -9 -15 -13 0 -22 16 -14 24 11 11 23 6 23 -9z m48
-76 c19 -6 46 -31 67 -60 20 -28 41 -52 48 -54 7 -2 38 -11 70 -20 31 -9 57
-21 57 -26 0 -5 -9 -18 -20 -29 -11 -11 -20 -29 -20 -40 0 -11 -2 -20 -4 -20
-13 0 -66 64 -66 79 0 22 -19 41 -41 41 -25 0 -49 -43 -67 -121 -10 -38 -20
-69 -23 -69 -3 0 -9 32 -12 72 -7 81 -1 93 53 116 33 13 33 15 15 28 -30 22
-84 34 -155 34 -61 0 -63 1 -39 14 14 7 44 25 65 40 21 14 39 26 40 26 0 0 15
-5 32 -11z m410 -52 c2 -11 -3 -17 -16 -17 -26 0 -34 11 -20 27 14 17 32 12
36 -10z m-118 -56 c0 -14 -18 -23 -30 -16 -6 4 -8 11 -5 16 8 12 35 12 35 0z
m115 -111 c-4 -6 -34 -23 -68 -38 -34 -16 -81 -41 -105 -56 -24 -15 -49 -25
-55 -23 -15 5 55 49 147 93 74 36 91 41 81 24z m4204 -772 c6 -34 9 -63 7 -65
-7 -7 -57 107 -51 116 16 28 33 8 44 -51z"/>
<path d="M8735 7560 c-8 -13 5 -13 25 0 13 8 13 10 -2 10 -9 0 -20 -4 -23 -10z"/>
<path d="M7637 7310 c14 -15 27 -20 39 -16 22 8 9 22 -31 32 l-30 6 22 -22z"/>
<path d="M7317 7273 c-12 -11 -8 -23 8 -23 8 0 15 7 15 15 0 16 -12 20 -23 8z"/>
<path d="M7895 7260 c-4 -6 -3 -16 3 -22 6 -6 12 -6 17 2 4 6 3 16 -3 22 -6 6
-12 6 -17 -2z"/>
<path d="M8595 7230 c-4 -6 -3 -16 3 -22 6 -6 12 -6 17 2 4 6 3 16 -3 22 -6 6
-12 6 -17 -2z"/>
<path d="M7662 7199 c2 -8 36 -22 74 -31 38 -9 70 -20 71 -25 17 -48 31 -58
88 -70 33 -7 72 -15 88 -19 15 -3 88 -3 163 1 113 6 136 10 140 24 3 9 10 25
16 35 9 16 7 18 -9 11 -29 -13 -278 -28 -339 -20 -53 6 -64 13 -101 59 -11 13
-48 23 -157 42 -30 5 -38 4 -34 -7z"/>
<path d="M7377 7183 c-12 -11 -8 -23 8 -23 8 0 15 7 15 15 0 16 -12 20 -23 8z"/>
<path d="M7460 7180 c-12 -7 -6 -17 29 -50 50 -48 84 -51 89 -8 6 50 -71 88
-118 58z m60 -25 c7 -9 10 -19 6 -22 -8 -9 -38 9 -44 25 -5 17 23 15 38 -3z"/>
<path d="M7625 7140 c-7 -12 2 -30 16 -30 12 0 12 27 0 35 -5 3 -12 1 -16 -5z"/>
<path d="M7410 7120 c13 -24 45 -28 36 -4 -3 9 -6 18 -6 20 0 2 -9 4 -20 4
-18 0 -19 -3 -10 -20z"/>
<path d="M10647 7123 c-12 -11 -8 -23 8 -23 8 0 15 7 15 15 0 16 -12 20 -23 8z"/>
<path d="M7342 7099 c2 -6 8 -10 13 -10 5 0 11 4 13 10 2 6 -4 11 -13 11 -9 0
-15 -5 -13 -11z"/>
<path d="M7682 7093 c2 -13 12 -18 33 -18 43 0 40 29 -3 33 -28 3 -33 0 -30
-15z"/>
<path d="M10690 7085 c0 -8 7 -15 15 -15 8 0 15 7 15 15 0 8 -7 15 -15 15 -8
0 -15 -7 -15 -15z"/>
<path d="M7580 7005 c-14 -8 -35 -14 -47 -15 -25 0 -29 -10 -11 -28 21 -21 -6
-38 -38 -23 -44 20 -38 6 13 -31 75 -55 85 -59 126 -46 42 13 46 28 17 69 -17
23 -19 33 -10 49 20 38 -5 51 -50 25z"/>
<path d="M7753 7010 c-19 -8 -23 -17 -23 -52 0 -56 12 -77 34 -59 9 8 16 19
16 27 0 7 10 19 23 25 28 14 67 50 67 61 0 11 -89 9 -117 -2z"/>
<path d="M7307 6986 c-3 -8 -18 -20 -34 -28 -17 -8 -29 -23 -31 -38 -7 -49
-21 -53 -63 -15 -41 37 -67 43 -87 23 -10 -10 -17 -10 -33 0 -18 12 -24 11
-41 -7 -25 -27 -42 -17 -34 20 3 16 2 29 -2 29 -4 0 -34 -15 -67 -34 -64 -36
-69 -47 -38 -95 14 -22 20 -23 70 -17 61 7 136 -8 130 -27 -2 -7 -42 -16 -98
-22 -78 -9 -89 -12 -62 -19 18 -4 49 -19 70 -33 49 -34 110 -34 218 2 88 29
124 26 207 -16 l39 -20 -16 25 c-19 29 -14 43 23 58 27 11 27 11 -13 18 -60 9
-85 27 -106 75 -21 47 -25 78 -14 113 8 24 -9 32 -18 8z"/>
<path d="M8274 6985 c-10 -25 6 -35 54 -35 69 0 82 14 33 34 -51 20 -80 20
-87 1z"/>
<path d="M7978 6967 c-77 -39 -86 -94 -28 -160 l30 -34 162 -5 c141 -5 173 -9
241 -32 42 -14 84 -26 91 -26 8 0 24 -8 36 -18 20 -16 21 -21 10 -43 -12 -22
-12 -23 4 -9 16 13 20 12 33 -5 8 -11 17 -32 20 -47 5 -25 10 -28 44 -28 32 0
39 -4 39 -19 0 -27 -35 -36 -62 -17 -28 20 -38 20 -67 -3 -20 -15 -22 -21 -12
-39 10 -19 8 -21 -64 -27 -73 -7 -104 -23 -90 -45 5 -8 28 -9 69 -5 68 8 139
-13 156 -45 6 -10 24 -21 41 -25 19 -4 29 -12 25 -20 -3 -9 10 -15 41 -20 26
-4 70 -17 99 -30 l54 -24 -17 26 c-11 17 -14 28 -7 30 6 2 19 10 29 17 26 19
13 47 -56 120 -32 35 -59 68 -59 75 0 6 14 18 31 26 29 16 32 15 66 -12 63
-50 72 -55 88 -49 8 3 15 15 15 26 0 11 4 20 8 20 5 0 16 6 26 13 18 13 18 15
-5 35 -12 12 -31 22 -40 22 -10 0 -35 11 -55 25 -20 14 -47 25 -60 25 -55 0
-88 38 -59 70 9 10 14 24 10 30 -11 17 -86 49 -115 50 -14 0 -32 4 -40 10 -12
7 -12 12 4 29 15 17 16 21 5 21 -8 0 -20 -5 -27 -12 -16 -16 -93 8 -99 32 -7
27 -44 42 -94 38 -31 -2 -44 -7 -44 -18 0 -16 -35 -18 -90 -4 -36 9 -45 20
-45 60 0 40 -20 48 -66 29 -38 -16 -59 -55 -50 -95 12 -61 11 -65 -9 -65 -23
0 -44 50 -43 100 0 26 2 24 13 -15 12 -44 12 -45 20 -16 10 35 -15 91 -44 99
-11 3 -40 -5 -63 -16z m819 -639 c11 -12 12 -18 3 -18 -16 0 -90 42 -90 51 0
13 69 -14 87 -33z"/>
<path d="M10390 6960 c0 -4 14 -13 31 -19 39 -13 42 -14 35 -2 -8 13 -66 32
-66 21z"/>
<path d="M8080 6841 c0 -6 5 -13 10 -16 6 -3 10 1 10 9 0 9 -4 16 -10 16 -5 0
-10 -4 -10 -9z"/>
<path d="M11050 6816 c0 -9 7 -16 16 -16 17 0 14 22 -4 28 -7 2 -12 -3 -12
-12z"/>
<path d="M11007 6793 c-12 -11 -8 -23 8 -23 8 0 15 7 15 15 0 16 -12 20 -23 8z"/>
<path d="M7575 6730 c-18 -20 -18 -21 3 -40 27 -26 62 -25 96 1 34 27 45 18
15 -10 -17 -15 -20 -24 -12 -32 16 -16 30 -4 54 43 l21 41 -47 -7 c-34 -6 -52
-3 -70 8 -31 21 -38 20 -60 -4z"/>
<path d="M9292 6718 c5 -15 28 -18 29 -3 0 6 -7 12 -17 13 -10 3 -15 -1 -12
-10z"/>
<path d="M8292 6708 c6 -18 28 -21 28 -4 0 9 -7 16 -16 16 -9 0 -14 -5 -12
-12z"/>
<path d="M8310 6644 c0 -9 5 -14 12 -12 18 6 21 28 4 28 -9 0 -16 -7 -16 -16z"/>
<path d="M8410 6625 c-12 -14 -11 -18 0 -25 18 -11 42 -1 38 18 -4 22 -23 25
-38 7z"/>
<path d="M8605 6540 c-8 -12 20 -24 35 -15 5 3 10 10 10 16 0 12 -37 12 -45
-1z"/>
<path d="M10651 6523 c-44 -3 -59 -10 -81 -33 -17 -18 -46 -34 -76 -41 l-49
-13 33 -8 c17 -5 32 -15 32 -23 0 -8 18 -19 41 -26 32 -10 51 -10 92 1 59 15
123 41 150 62 18 13 18 15 -5 51 -25 39 -19 38 -137 30z"/>
<path d="M10460 6508 c-21 -10 -22 -12 -7 -15 26 -7 69 6 62 17 -8 12 -23 12
-55 -2z"/>
<path d="M8400 6345 c0 -8 7 -15 15 -15 8 0 15 7 15 15 0 8 -7 15 -15 15 -8 0
-15 -7 -15 -15z"/>
<path d="M8345 6340 c-4 -6 -3 -16 3 -22 6 -6 12 -6 17 2 4 6 3 16 -3 22 -6 6
-12 6 -17 -2z"/>
<path d="M8147 6293 c-14 -13 -6 -33 12 -33 21 0 45 23 34 33 -8 9 -38 9 -46
0z"/>
<path d="M8274 6286 c-8 -22 3 -49 19 -43 6 2 12 14 12 27 0 27 -22 39 -31 16z"/>
<path d="M11065 6278 c-9 -25 -10 -77 -2 -80 11 -4 38 72 31 84 -8 12 -24 10
-29 -4z"/>
<path d="M11287 6194 c-4 -4 -7 -16 -7 -26 0 -20 25 -25 36 -7 8 13 -19 43
-29 33z"/>
<path d="M8730 6164 c0 -9 5 -14 12 -12 18 6 21 28 4 28 -9 0 -16 -7 -16 -16z"/>
<path d="M11170 6053 c-39 -44 -41 -50 -37 -99 4 -54 19 -84 43 -84 20 0 44
-29 44 -55 0 -13 -10 -32 -22 -42 -13 -10 -28 -28 -34 -38 -10 -17 -7 -21 20
-30 39 -13 38 -25 -3 -47 -52 -26 -50 -31 9 -23 30 5 69 9 85 10 17 1 40 3 52
3 27 2 63 39 63 64 0 10 -11 23 -24 28 -17 6 -29 22 -37 51 -8 24 -34 65 -62
95 -48 53 -49 55 -33 79 24 36 20 45 -14 39 -25 -6 -30 -3 -30 13 0 11 9 32
20 46 11 14 20 28 20 31 0 17 -23 1 -60 -41z"/>
<path d="M11065 6070 c-4 -6 -3 -16 3 -22 6 -6 12 -6 17 2 4 6 3 16 -3 22 -6
6 -12 6 -17 -2z"/>
<path d="M6147 6024 c-8 -8 1 -24 14 -24 5 0 9 7 9 15 0 15 -12 20 -23 9z"/>
<path d="M11065 6010 c-4 -6 -3 -16 3 -22 6 -6 12 -6 17 2 4 6 3 16 -3 22 -6
6 -12 6 -17 -2z"/>
<path d="M8275 5931 c-7 -12 12 -24 25 -16 11 7 4 25 -10 25 -5 0 -11 -4 -15
-9z"/>
<path d="M6254 5905 c-8 -20 3 -48 16 -40 13 8 13 55 0 55 -6 0 -13 -7 -16
-15z"/>
<path d="M11762 5873 c2 -10 10 -18 18 -18 22 0 18 29 -3 33 -14 3 -18 -1 -15
-15z"/>
<path d="M11032 5868 c-7 -7 -12 -18 -12 -25 0 -7 -11 -19 -25 -25 -16 -7 -24
-17 -20 -26 3 -8 0 -32 -7 -53 -6 -22 -9 -42 -6 -45 3 -3 33 8 67 25 53 27 61
36 71 71 11 40 1 80 -20 80 -4 0 -14 2 -22 5 -7 3 -19 0 -26 -7z"/>
<path d="M11890 5865 c0 -8 7 -15 15 -15 8 0 15 7 15 15 0 8 -7 15 -15 15 -8
0 -15 -7 -15 -15z"/>
<path d="M6250 5810 c0 -15 5 -20 18 -18 9 2 17 10 17 18 0 8 -8 16 -17 18
-13 2 -18 -3 -18 -18z"/>
<path d="M8196 5761 c-8 -12 30 -58 39 -49 12 11 -4 58 -20 58 -7 0 -16 -4
-19 -9z"/>
<path d="M6280 5740 c0 -19 30 -83 36 -77 8 7 -14 75 -27 82 -5 4 -9 1 -9 -5z"/>
<path d="M6480 5610 c8 -5 22 -10 30 -10 8 0 29 -14 47 -32 18 -18 33 -27 33
-20 0 17 -79 72 -104 72 -17 0 -18 -2 -6 -10z"/>
<path d="M9173 5607 c-28 -15 -103 -86 -103 -96 0 -4 9 -16 20 -26 20 -18 30
-18 114 1 21 5 27 4 22 -5 -5 -7 -5 -24 -1 -38 l6 -26 22 21 c15 14 27 18 37
12 15 -9 30 -4 30 11 0 5 -8 9 -19 9 -14 0 -17 6 -14 23 7 37 -28 71 -71 70
-39 -1 -45 7 -21 27 31 26 16 38 -22 17z"/>
<path d="M8896 5571 c-8 -13 39 -41 69 -41 30 0 34 25 6 40 -24 12 -68 13 -75
1z"/>
<path d="M9165 5451 c-7 -12 12 -24 25 -16 11 7 4 25 -10 25 -5 0 -11 -4 -15
-9z"/>
<path d="M11670 5210 c0 -15 5 -20 18 -18 9 2 17 10 17 18 0 8 -8 16 -17 18
-13 2 -18 -3 -18 -18z"/>
<path d="M11667 5123 c-13 -12 -7 -44 9 -50 21 -8 35 16 23 39 -10 19 -21 23
-32 11z"/>
<path d="M11478 5099 c-10 -5 -18 -16 -18 -24 0 -12 5 -12 32 -1 18 8 34 19
36 25 5 14 -27 14 -50 0z"/>
<path d="M11390 5035 c0 -8 7 -15 15 -15 8 0 15 7 15 15 0 8 -7 15 -15 15 -8
0 -15 -7 -15 -15z"/>
<path d="M11847 4994 c-13 -14 -7 -22 29 -39 42 -20 67 -8 48 23 -11 17 -64
29 -77 16z"/>
<path d="M12105 4981 c-7 -12 12 -24 25 -16 11 7 4 25 -10 25 -5 0 -11 -4 -15
-9z"/>
<path d="M11786 4943 c-11 -11 -6 -23 9 -23 8 0 15 4 15 9 0 13 -16 22 -24 14z"/>
<path d="M12346 4943 c-11 -11 -6 -23 9 -23 8 0 15 4 15 9 0 13 -16 22 -24 14z"/>
<path d="M12262 4918 c6 -18 28 -21 28 -4 0 9 -7 16 -16 16 -9 0 -14 -5 -12
-12z"/>
<path d="M11860 4876 c0 -9 7 -16 16 -16 17 0 14 22 -4 28 -7 2 -12 -3 -12
-12z"/>
<path d="M11795 4861 c-7 -12 12 -24 25 -16 11 7 4 25 -10 25 -5 0 -11 -4 -15
-9z"/>
<path d="M12278 4853 c6 -2 18 -2 25 0 6 3 1 5 -13 5 -14 0 -19 -2 -12 -5z"/>
<path d="M8835 4741 c-7 -12 12 -24 25 -16 11 7 4 25 -10 25 -5 0 -11 -4 -15
-9z"/>
<path d="M10677 4733 c-12 -11 -8 -23 8 -23 8 0 15 7 15 15 0 16 -12 20 -23 8z"/>
<path d="M10645 4550 c-4 -6 -3 -16 3 -22 6 -6 12 -6 17 2 4 6 3 16 -3 22 -6
6 -12 6 -17 -2z"/>
<path d="M10787 4534 c-8 -8 1 -24 14 -24 5 0 9 7 9 15 0 15 -12 20 -23 9z"/>
<path d="M10704 4519 c-10 -17 13 -36 27 -22 12 12 4 33 -11 33 -5 0 -12 -5
-16 -11z"/>
<path d="M8325 4490 c-4 -6 -3 -16 3 -22 6 -6 12 -6 17 2 4 6 3 16 -3 22 -6 6
-12 6 -17 -2z"/>
<path d="M10645 4490 c-4 -6 -3 -16 3 -22 6 -6 12 -6 17 2 4 6 3 16 -3 22 -6
6 -12 6 -17 -2z"/>
<path d="M8385 4471 c-7 -12 12 -24 25 -16 11 7 4 25 -10 25 -5 0 -11 -4 -15
-9z"/>
<path d="M8327 4414 c-8 -8 1 -24 14 -24 5 0 9 7 9 15 0 15 -12 20 -23 9z"/>
<path d="M8400 4405 c0 -8 7 -15 15 -15 8 0 15 7 15 15 0 8 -7 15 -15 15 -8 0
-15 -7 -15 -15z"/>
<path d="M8355 4370 c-10 -17 12 -37 25 -24 8 8 6 15 -4 23 -10 9 -16 9 -21 1z"/>
<path d="M8435 4370 c-4 -6 -3 -16 3 -22 6 -6 12 -6 17 2 4 6 3 16 -3 22 -6 6
-12 6 -17 -2z"/>
<path d="M8400 4316 c0 -11 24 -21 67 -27 4 0 9 4 11 10 2 6 -5 11 -17 11 -11
0 -23 5 -26 10 -9 15 -35 12 -35 -4z"/>
<path d="M8138 4287 c-24 -19 -23 -24 12 -42 17 -9 28 -20 25 -25 -4 -6 1 -10
9 -10 19 0 20 5 6 31 -16 29 4 25 97 -20 57 -28 82 -45 86 -61 5 -21 10 -22
54 -16 95 13 84 33 -58 101 -112 54 -197 69 -231 42z"/>
<path d="M8515 4280 c-4 -6 -3 -16 3 -22 6 -6 12 -6 17 2 4 6 3 16 -3 22 -6 6
-12 6 -17 -2z"/>
<path d="M5255 4261 c-7 -12 12 -24 25 -16 11 7 4 25 -10 25 -5 0 -11 -4 -15
-9z"/>
<path d="M8577 4263 c-12 -11 -8 -23 8 -23 8 0 15 7 15 15 0 16 -12 20 -23 8z"/>
<path d="M5305 4230 c-4 -7 -3 -16 3 -22 14 -14 45 -2 40 15 -6 16 -34 21 -43
7z"/>
<path d="M8545 4220 c-4 -6 -3 -16 3 -22 6 -6 12 -6 17 2 4 6 3 16 -3 22 -6 6
-12 6 -17 -2z"/>
<path d="M5386 4173 c3 -21 13 -45 20 -53 12 -12 16 -12 30 2 15 15 14 18 -5
37 -12 12 -21 28 -21 36 0 8 -7 15 -15 15 -13 0 -15 -7 -9 -37z"/>
<path d="M8548 4111 c-9 -11 -14 -22 -10 -25 7 -8 98 -6 147 3 39 7 40 7 16
20 -13 7 -49 15 -80 17 -46 3 -59 0 -73 -15z"/>
<path d="M8781 4101 c-18 -12 -5 -31 20 -31 14 0 19 6 17 17 -4 20 -18 26 -37
14z"/>
<path d="M8342 4073 c2 -12 12 -18 28 -18 36 0 33 29 -3 33 -23 3 -28 0 -25
-15z"/>
<path d="M8852 4058 c6 -18 28 -21 28 -4 0 9 -7 16 -16 16 -9 0 -14 -5 -12
-12z"/>
<path d="M8075 4049 c-10 -15 1 -23 20 -15 9 3 13 10 10 16 -8 13 -22 13 -30
-1z"/>
<path d="M8915 4051 c-7 -12 12 -24 25 -16 11 7 4 25 -10 25 -5 0 -11 -4 -15
-9z"/>
<path d="M8980 4024 c0 -17 22 -14 28 4 2 7 -3 12 -12 12 -9 0 -16 -7 -16 -16z"/>
<path d="M10362 3998 c6 -18 28 -21 28 -4 0 9 -7 16 -16 16 -9 0 -14 -5 -12
-12z"/>
<path d="M10455 3991 c-7 -12 12 -24 25 -16 11 7 4 25 -10 25 -5 0 -11 -4 -15
-9z"/>
<path d="M8980 3964 c0 -17 22 -14 28 4 2 7 -3 12 -12 12 -9 0 -16 -7 -16 -16z"/>
<path d="M10395 3929 c-10 -15 1 -23 20 -15 9 3 13 10 10 16 -8 13 -22 13 -30
-1z"/>
<path d="M10455 3931 c-7 -12 12 -24 25 -16 11 7 4 25 -10 25 -5 0 -11 -4 -15
-9z"/>
<path d="M8990 3908 c0 -7 -3 -23 -6 -35 -5 -17 -2 -23 10 -23 9 0 16 6 16 13
0 6 3 22 6 35 5 16 2 22 -10 22 -9 0 -16 -6 -16 -12z"/>
<path d="M9055 3851 c-7 -12 12 -24 25 -16 11 7 4 25 -10 25 -5 0 -11 -4 -15
-9z"/>
<path d="M8717 3843 c-12 -11 -8 -23 8 -23 8 0 15 7 15 15 0 16 -12 20 -23 8z"/>
<path d="M8775 3821 c-7 -12 12 -24 25 -16 11 7 4 25 -10 25 -5 0 -11 -4 -15
-9z"/>
<path d="M8967 3813 c-12 -11 -8 -23 8 -23 8 0 15 7 15 15 0 16 -12 20 -23 8z"/>
<path d="M9010 3754 c0 -17 22 -14 28 4 2 7 -3 12 -12 12 -9 0 -16 -7 -16 -16z"/>
<path d="M8590 3743 c0 -12 5 -25 10 -28 13 -8 13 15 0 35 -8 12 -10 11 -10
-7z"/>
<path d="M11627 3434 c-8 -8 1 -24 14 -24 5 0 9 7 9 15 0 15 -12 20 -23 9z"/>
<path d="M11592 3368 c6 -18 28 -21 28 -4 0 9 -7 16 -16 16 -9 0 -14 -5 -12
-12z"/>
<path d="M7855 3341 c-7 -12 12 -24 25 -16 11 7 4 25 -10 25 -5 0 -11 -4 -15
-9z"/>
<path d="M11545 3311 c-7 -12 12 -24 25 -16 11 7 4 25 -10 25 -5 0 -11 -4 -15
-9z"/>
<path d="M7794 3266 c-9 -24 12 -44 28 -28 10 10 8 16 -5 29 -15 15 -17 15
-23 -1z"/>
<path d="M7855 3270 c-3 -6 1 -13 10 -16 19 -8 30 0 20 15 -8 14 -22 14 -30 1z"/>
<path d="M7920 3244 c0 -17 22 -14 28 4 2 7 -3 12 -12 12 -9 0 -16 -7 -16 -16z"/>
<path d="M11517 3214 c-13 -13 -7 -24 14 -24 11 0 19 5 17 12 -5 14 -22 21
-31 12z"/>
<path d="M5632 2509 c2 -6 8 -10 13 -10 5 0 11 4 13 10 2 6 -4 11 -13 11 -9 0
-15 -5 -13 -11z"/>
<path d="M5675 2481 c-3 -5 -1 -12 5 -16 12 -7 30 2 30 16 0 12 -27 12 -35 0z"/>
<path d="M6117 2383 c-12 -11 -8 -23 8 -23 8 0 15 7 15 15 0 16 -12 20 -23 8z"/>
<path d="M5955 2350 c-3 -6 1 -13 10 -16 19 -8 30 0 20 15 -8 14 -22 14 -30 1z"/>
<path d="M6205 2291 c-7 -12 12 -24 25 -16 11 7 4 25 -10 25 -5 0 -11 -4 -15
-9z"/>
<path d="M6427 2233 c-12 -11 -8 -23 8 -23 8 0 15 7 15 15 0 16 -12 20 -23 8z"/>
<path d="M6567 2203 c-12 -11 -8 -23 8 -23 8 0 15 7 15 15 0 16 -12 20 -23 8z"/>
<path d="M7330 2136 c0 -9 7 -16 16 -16 17 0 14 22 -4 28 -7 2 -12 -3 -12 -12z"/>
<path d="M7146 2113 c-11 -11 -6 -23 9 -23 8 0 15 4 15 9 0 13 -16 22 -24 14z"/>
<path d="M8295 1780 c-4 -6 -3 -16 3 -22 6 -6 12 -6 17 2 4 6 3 16 -3 22 -6 6
-12 6 -17 -2z"/>
<path d="M8463 1364 c-9 -23 11 -38 26 -20 13 16 7 36 -10 36 -5 0 -12 -7 -16
-16z"/>
<path d="M8432 1078 c6 -18 28 -21 28 -4 0 9 -7 16 -16 16 -9 0 -14 -5 -12
-12z"/>
<path d="M8437 1013 c-12 -11 -8 -23 8 -23 8 0 15 7 15 15 0 16 -12 20 -23 8z"/>
<path d="M8432 928 c6 -18 28 -21 28 -4 0 9 -7 16 -16 16 -9 0 -14 -5 -12 -12z"/>
<path d="M9070 892 c0 -10 -5 -23 -11 -29 -8 -8 -8 -13 0 -17 14 -9 33 2 26
14 -3 5 -1 11 5 15 15 10 12 35 -5 35 -8 0 -15 -8 -15 -18z"/>
<path d="M8993 884 c-3 -8 -1 -20 6 -27 14 -14 47 15 37 32 -10 16 -36 13 -43
-5z"/>
<path d="M8480 826 c0 -8 9 -20 20 -26 11 -6 20 -17 20 -25 0 -8 5 -15 10 -15
12 0 13 23 3 34 -4 4 -8 15 -8 24 0 10 -9 18 -22 20 -15 2 -23 -2 -23 -12z"/>
<path d="M8666 794 c-3 -9 -6 -24 -6 -34 0 -12 -10 -21 -31 -25 -39 -9 -31
-16 28 -27 72 -14 116 -14 120 -1 4 12 -81 103 -97 103 -4 0 -11 -7 -14 -16z"/>
<path d="M9860 750 c0 -15 66 -44 84 -37 23 9 20 22 -9 35 -32 15 -75 16 -75
2z"/>
<path d="M8835 721 c-3 -5 -1 -12 5 -16 12 -7 30 2 30 16 0 12 -27 12 -35 0z"/>
<path d="M8650 656 c0 -19 26 -27 39 -12 13 15 4 26 -21 26 -10 0 -18 -6 -18
-14z"/>
<path d="M8308 7545 c-60 -32 -69 -47 -21 -33 54 15 95 37 88 48 -8 14 -14 12
-67 -15z"/>
</g>
</svg>
